<?xml version="1.0" standalone="no"?><!DOCTYPE svg PUBLIC "-//W3C//DTD SVG 1.1//EN" "http://www.w3.org/Graphics/SVG/1.1/DTD/svg11.dtd"><svg t="1634563379049" class="icon" viewBox="0 0 1024 1024" version="1.1" xmlns="http://www.w3.org/2000/svg" p-id="2501" xmlns:xlink="http://www.w3.org/1999/xlink" width="200" height="200"><defs><style type="text/css"></style></defs><path d="M810.922667 0H213.077333C110.848 0 28.074667 82.773333 28.074667 185.002667c0 102.229333 82.773333 185.002667 185.002666 185.002666h211.285334l60.586666 138.410667v406.528h55.296V508.416l59.221334-138.410667h211.285333c102.229333 0 185.002667-82.773333 185.002667-185.002666C995.925333 82.773333 913.152 0 810.922667 0z" fill="#e6e6e6" p-id="2502" data-spm-anchor-id="a313x.7781069.0.i1" class=""></path><path d="M603.050667 345.088h207.872c88.234667 0 160.085333-71.850667 160.085333-160.085333s-71.850667-160.085333-160.085333-160.085334H213.077333c-88.234667 0-160.085333 71.850667-160.085333 160.085334s71.850667 160.085333 160.085333 160.085333h389.973334z" fill="#070F1B" p-id="2503"></path><path d="M141.909333 185.002667c0 33.109333 17.578667 63.658667 46.250667 80.042666 28.672 16.554667 63.829333 16.554667 92.501333 0 28.672-16.554667 46.250667-47.104 46.250667-80.042666 0-51.029333-41.472-92.501333-92.501333-92.501334-51.029333 0-92.501333 41.472-92.501334 92.501334z m0 0" fill="#FF3C3C" p-id="2504"></path><path d="M419.584 185.002667c0 51.029333 41.472 92.501333 92.501333 92.501333 51.029333 0 92.501333-41.472 92.501334-92.501333s-41.472-92.501333-92.501334-92.501334c-51.2 0-92.501333 41.472-92.501333 92.501334z m0 0" fill="#F7B500" p-id="2505"></path><path d="M697.088 185.002667c0 51.029333 41.472 92.501333 92.501333 92.501333 51.029333 0 92.501333-41.472 92.501334-92.501333s-41.472-92.501333-92.501334-92.501334c-51.2 0-92.501333 41.472-92.501333 92.501334z m0 0" fill="#00D19A" p-id="2506"></path><path d="M382.890667 946.346667a129.024 77.653333 0 1 0 258.048 0 129.024 77.653333 0 1 0-258.048 0Z" fill="#cdcdcd" p-id="2507" data-spm-anchor-id="a313x.7781069.0.i2" class="selected"></path></svg>